<?xml version="1.0" encoding="iso-8859-1"?>
<!-- Uploaded to: SVG Repo, www.svgrepo.com, Generator: SVG Repo Mixer Tools -->
<!DOCTYPE svg PUBLIC "-//W3C//DTD SVG 1.1//EN" "http://www.w3.org/Graphics/SVG/1.1/DTD/svg11.dtd">
<svg fill="#000000" version="1.1" id="Capa_1" xmlns="http://www.w3.org/2000/svg" xmlns:xlink="http://www.w3.org/1999/xlink" 
	 viewBox="0 0 145.44 145.44" xml:space="preserve">
<g>
	<g>
		<g>
			<path d="M6.321,79.406C2.83,79.406,0,82.236,0,85.728c0,3.491,2.83,6.321,6.321,6.321h12.892l-3.887-12.644H6.321z M6.699,88.366
				c-1.457,0-2.639-1.182-2.639-2.638c0-1.457,1.182-2.638,2.639-2.638c1.456,0,2.638,1.181,2.638,2.638
				C9.337,87.184,8.155,88.366,6.699,88.366z"/>
		</g>
		<g>
			<path d="M139.119,79.406c3.491,0,6.321,2.83,6.321,6.322c0,3.491-2.83,6.321-6.321,6.321h-12.892l3.888-12.644H139.119z
				 M138.742,88.366c1.456,0,2.638-1.182,2.638-2.638c0-1.457-1.182-2.638-2.638-2.638c-1.457,0-2.638,1.181-2.638,2.638
				C136.104,87.184,137.285,88.366,138.742,88.366z"/>
		</g>
	</g>
	<path d="M72.721,75.01H17.858c0,0,8.55,36.648,18.503,36.648c9.954,0,36.359,0,36.359,0s26.404,0,36.358,0
		c9.953,0,18.504-36.648,18.504-36.648H72.721z"/>
	<path d="M135.039,70.581c0,1.277-1.036,2.313-2.313,2.313H12.715c-1.277,0-2.314-1.036-2.314-2.313l0,0
		c0-1.277,1.036-2.313,2.314-2.313h120.011C134.003,68.268,135.039,69.304,135.039,70.581L135.039,70.581z"/>
	<path d="M72.721,44.885c-31.982,0-57.909,9.467-57.909,21.146h115.817C130.629,54.352,104.702,44.885,72.721,44.885z"/>
	<rect x="65.408" y="39.631" width="14.624" height="3.54"/>
	<path d="M86.959,36.167c0,1.318-1.068,2.387-2.386,2.387H60.867c-1.317,0-2.386-1.068-2.386-2.387l0,0
		c0-1.317,1.068-2.386,2.386-2.386h23.706C85.891,33.782,86.959,34.85,86.959,36.167L86.959,36.167z"/>
</g>
</svg>