<svg xmlns="http://www.w3.org/2000/svg" xmlns:xlink="http://www.w3.org/1999/xlink" version="1.0" x="0px" y="0px" viewBox="0 0 100 125" enable-background="new 0 0 100 100" xml:space="preserve"><path d="M48.45,87.499c0,0-1.772-49.417-43.426-68.745C5.024,18.754,56.809,23.627,48.45,87.499z M62.525,58.003  c10.035-7.941,18.488-15.329,26.783-30.683l0,0c0.363-0.745,0.658-1.35,0.855-1.75c0.75-1.458,2.371-4.974,4.812-6.816  c-0.021-0.001-24.873,1.422-36.395,17.992c-4.271,6.14-7.312,16.379-7.312,35.529c0.055-0.26,0.111-0.528,0.166-0.811  c0.248-1.105,0.66-2.32,1.039-3.658c0.197-0.664,0.401-1.363,0.613-2.084c0.244-0.705,0.538-1.43,0.818-2.171  c0.585-1.483,1.115-3.079,1.908-4.629c0.75-1.569,1.453-3.22,2.387-4.787c0.443-0.794,0.889-1.592,1.342-2.395  c0.445-0.8,0.98-1.557,1.471-2.339c0.506-0.771,0.98-1.564,1.51-2.313c0.543-0.742,1.078-1.478,1.613-2.213  c1.029-1.494,2.229-2.824,3.293-4.18c1.143-1.294,2.232-2.556,3.33-3.69c1.104-1.132,2.145-2.204,3.158-3.13  c1.994-1.899,3.771-3.353,5.029-4.345c1.264-0.991,2.025-1.499,2.025-1.499s-0.744,0.54-1.961,1.579  c-1.216,1.042-2.931,2.561-4.837,4.532c-0.978,0.964-1.965,2.07-3.012,3.239c-1.043,1.169-2.072,2.465-3.149,3.793  c-1.002,1.387-2.132,2.748-3.091,4.265c-0.498,0.746-0.998,1.496-1.5,2.249c-0.489,0.761-0.928,1.562-1.392,2.34  c-0.448,0.792-0.942,1.551-1.354,2.355c-0.406,0.808-0.812,1.61-1.211,2.407c-0.854,1.566-1.479,3.22-2.148,4.777  c-0.707,1.541-1.164,3.121-1.672,4.592c-0.246,0.736-0.504,1.445-0.711,2.146c-0.107,0.432-0.211,0.834-0.312,1.244  C56.346,64.665,58.802,61.368,62.525,58.003z"/></svg>