<svg xmlns="http://www.w3.org/2000/svg" xmlns:xlink="http://www.w3.org/1999/xlink" version="1.1" x="0px" y="0px" viewBox="0 0 24 30" enable-background="new 0 0 24 24" xml:space="preserve"><g><path d="M20,11V9H4v2H2v2h2v7c0,0.6,0.4,1,1,1h14c0.6,0,1-0.4,1-1v-7h2v-2H20z M17,19c-0.5,0-1-0.5-1-1c0-0.6,0.5-1,1-1   c0.6,0,1,0.4,1,1C18,18.5,17.6,19,17,19 M17,15c-0.5,0-1-0.5-1-1c0-0.6,0.5-1,1-1c0.6,0,1,0.4,1,1C18,14.5,17.6,15,17,15"/><path d="M20,7H4c0-1.4,2.5-2.6,6-2.9V4c0-0.6,0.4-1,1-1h2c0.6,0,1,0.4,1,1v0.1C17.4,4.4,20,5.6,20,7"/></g></svg>