<svg xmlns="http://www.w3.org/2000/svg" data-name="no gluten" viewBox="0 0 97.5 121.875" x="0px" y="0px"><defs><style>.cls-1{fill:none;}.cls-2{fill:#000100;}</style></defs><title>gluten</title><path class="cls-1" d="M48.2,72.7A12.46,12.46,0,0,0,35.06,59.56a12.94,12.94,0,0,0,3.63,9.51A13.13,13.13,0,0,0,48.2,72.7Z" transform="translate(-1.5 -1.17)"/><path class="cls-1" d="M48.2,57.88A12.46,12.46,0,0,0,35.06,44.74a12.94,12.94,0,0,0,3.63,9.51A13.11,13.11,0,0,0,48.2,57.88Z" transform="translate(-1.5 -1.17)"/><path class="cls-1" d="M44.57,33.55a12.79,12.79,0,0,0-9.51-3.63c0,0.27,0,.53,0,0.79L47.4,43c0.27,0,.53,0,0.8,0A13,13,0,0,0,44.57,33.55Z" transform="translate(-1.5 -1.17)"/><path class="cls-1" d="M52.3,72.7a13.08,13.08,0,0,0,9.51-3.63,11.88,11.88,0,0,0,1.74-2.23l-5.38-5.38a12,12,0,0,0-2.23,1.74A13,13,0,0,0,52.3,72.7Z" transform="translate(-1.5 -1.17)"/><path class="cls-1" d="M54.45,57.74l-2-2a14.59,14.59,0,0,0-.13,2.17A15.36,15.36,0,0,0,54.45,57.74Z" transform="translate(-1.5 -1.17)"/><path class="cls-1" d="M50.25,15.21A13,13,0,0,0,46.1,24.5a13,13,0,0,0,4.15,9.29A13,13,0,0,0,54.4,24.5,13,13,0,0,0,50.25,15.21Z" transform="translate(-1.5 -1.17)"/><path class="cls-1" d="M52.3,43.06A12.47,12.47,0,0,0,65.44,29.92,12.47,12.47,0,0,0,52.3,43.06Z" transform="translate(-1.5 -1.17)"/><path class="cls-1" d="M65.44,44.74a13,13,0,0,0-9.51,3.63,11.84,11.84,0,0,0-1.44,1.77L60,55.69a11.66,11.66,0,0,0,1.77-1.44A12.94,12.94,0,0,0,65.44,44.74Z" transform="translate(-1.5 -1.17)"/><path class="cls-1" d="M64,59.61L65.39,61a14.76,14.76,0,0,0,.05-1.48A14.6,14.6,0,0,0,64,59.61Z" transform="translate(-1.5 -1.17)"/><path class="cls-2" d="M69.38,57.4a2,2,0,0,0-1.78-1.78c-0.5-.06-1-0.09-1.49-0.11a17.58,17.58,0,0,0,3.27-12.93,2,2,0,0,0-1.78-1.78c-0.5-.06-1-0.09-1.49-0.11a17.59,17.59,0,0,0,3.27-12.94A2,2,0,0,0,67.61,26a18.31,18.31,0,0,0-9.37,1.24,16,16,0,0,0,.26-2.72,17.31,17.31,0,0,0-7-13.61,2,2,0,0,0-2.51,0,17.3,17.3,0,0,0-7,13.61,16,16,0,0,0,.26,2.72A18.3,18.3,0,0,0,32.89,26a2,2,0,0,0-1.51,1l3.7,3.7c0-.26,0-0.52,0-0.79a12.79,12.79,0,0,1,9.51,3.63,13,13,0,0,1,3.63,9.51c-0.27,0-.53,0-0.8,0l7.1,7.11a11.84,11.84,0,0,1,1.44-1.77,13,13,0,0,1,9.51-3.63,12.94,12.94,0,0,1-3.63,9.51A11.66,11.66,0,0,1,60,55.69L64,59.61a14.6,14.6,0,0,1,1.48,0A14.76,14.76,0,0,1,65.39,61l3.51,3.52A18.65,18.65,0,0,0,69.38,57.4ZM46.1,24.5a13,13,0,0,1,4.15-9.29A13,13,0,0,1,54.4,24.5a13,13,0,0,1-4.15,9.29A13,13,0,0,1,46.1,24.5ZM61.81,39.43a12.92,12.92,0,0,1-9.51,3.63A12.47,12.47,0,0,1,65.44,29.92,13,13,0,0,1,61.81,39.43Z" transform="translate(-1.5 -1.17)"/><path class="cls-2" d="M32.89,40.8a2,2,0,0,0-1.78,1.78,17.6,17.6,0,0,0,3.27,12.93c-0.5,0-1,0-1.49.11a2,2,0,0,0-1.78,1.78A17.3,17.3,0,0,0,35.79,72a16.68,16.68,0,0,0,12,4.84H48v5.36a2,2,0,1,0,4,0V76.79h0.46A17.09,17.09,0,0,0,64.63,72a16.17,16.17,0,0,0,1.83-2.18l-2.93-2.95a11.84,11.84,0,0,1-1.73,2.23,13.07,13.07,0,0,1-9.5,3.63,13,13,0,0,1,3.63-9.51,12,12,0,0,1,2.24-1.74l-3.71-3.72a15.36,15.36,0,0,1-2.15.15,14.59,14.59,0,0,1,.13-2.17L31.55,34.82a16.63,16.63,0,0,0,2.83,5.87C33.89,40.72,33.39,40.74,32.89,40.8Zm11.67,7.57a13,13,0,0,1,3.63,9.51,13.11,13.11,0,0,1-9.51-3.63,12.94,12.94,0,0,1-3.63-9.51A13,13,0,0,1,44.57,48.37Zm0,14.82A13,13,0,0,1,48.2,72.7a13.13,13.13,0,0,1-9.51-3.63,12.94,12.94,0,0,1-3.63-9.51A12.89,12.89,0,0,1,44.57,63.19Z" transform="translate(-1.5 -1.17)"/><path d="M50.25,1.17A48.75,48.75,0,1,0,99,49.92,48.81,48.81,0,0,0,50.25,1.17Zm0,93.18a44.39,44.39,0,0,1-33.14-74l0.9-.89,62.66,62.7-0.89.9A44.24,44.24,0,0,1,50.25,94.35ZM83.58,79.24l-0.88.89L20.06,17.45l0.89-.88A44.39,44.39,0,0,1,83.58,79.24Z" transform="translate(-1.5 -1.17)"/></svg>